<?xml version="1.0" encoding="UTF-8" standalone="no"?>
<!-- Created with Inkscape (http://www.inkscape.org/) -->

<svg
   width="780"
   height="780"
   viewBox="0 0 206.375 206.375"
   version="1.1"
   id="svg1"
   xml:space="preserve"
   inkscape:version="1.4.4 (dcaf3e7d9e, 2026-05-05)"
   sodipodi:docname="faber-logo.svg"
   xmlns:inkscape="http://www.inkscape.org/namespaces/inkscape"
   xmlns:sodipodi="http://sodipodi.sourceforge.net/DTD/sodipodi-0.dtd"
   xmlns="http://www.w3.org/2000/svg"
   xmlns:svg="http://www.w3.org/2000/svg"><sodipodi:namedview
     id="namedview1"
     pagecolor="#ffffff"
     bordercolor="#000000"
     borderopacity="0.25"
     inkscape:showpageshadow="2"
     inkscape:pageopacity="0.0"
     inkscape:pagecheckerboard="0"
     inkscape:deskcolor="#d1d1d1"
     inkscape:document-units="mm"
     inkscape:zoom="0.51892186"
     inkscape:cx="116.58788"
     inkscape:cy="237.99344"
     inkscape:window-width="1920"
     inkscape:window-height="1008"
     inkscape:window-x="0"
     inkscape:window-y="0"
     inkscape:window-maximized="1"
     inkscape:current-layer="layer1" /><defs
     id="defs1" /><g
     inkscape:label="Layer 1"
     inkscape:groupmode="layer"
     id="layer1"
     transform="translate(-110.04868,-119.26974)"><path
       style="fill:#151e3a;fill-opacity:1;stroke:none"
       d="m 289.44517,229.94477 c -11.32409,-0.48615 -22.46544,-2.38125 -33.86666,-2.38125 -3.239,0 -6.84866,-0.85424 -10.05417,-0.16128 -3.16715,0.68468 -6.3244,2.96481 -9.26042,4.31295 -6.18504,2.83999 -12.36646,5.69928 -18.52083,8.60631 -16.40126,7.74715 -33.24607,14.51536 -49.47708,22.63085 -9.63331,4.81666 -19.41795,9.99419 -27.78125,16.84637 -2.49405,2.04342 -7.52616,6.11576 -6.04602,9.94189 1.45825,3.76952 7.1643,4.02013 10.54393,4.257 9.93629,0.69644 19.83324,-1.29582 29.36875,-4.02979 14.68969,-4.21176 29.11922,-11.05916 42.06875,-19.12513 13.73906,-8.55773 26.53099,-18.70465 40.74584,-26.52958 7.28282,-4.00902 14.70404,-7.61255 22.48958,-10.55168 2.46867,-0.93195 8.21993,-1.72653 9.78958,-3.81666 z"
       id="path2" /><path
       style="fill:#173dae;stroke:none"
       d="m 314.58059,217.77394 c -3.84802,-5.46259 -10.50147,-9.38843 -16.13958,-12.75308 -12.8435,-7.66464 -26.95296,-12.74453 -39.95209,-20.00135 -3.68511,-2.05724 -6.78543,-6.85362 -9.78958,-9.84328 -4.78619,-4.76311 -10.35791,-8.84791 -16.13958,-12.31682 -27.61566,-16.569 -64.9759,-16.65953 -91.01667,3.22933 -22.47964,17.16901 -29.63334,44.29056 -29.63334,71.26436 0,8.56962 -0.81133,23.75072 8.46667,27.96316 3.97401,1.80429 8.55785,1.24159 12.7,0.39994 8.63418,-1.7544 17.04915,-5.28962 25.13542,-8.7088 20.13438,-8.5136 39.9364,-17.76081 59.79583,-26.87971 8.87801,-4.07654 17.52234,-9.91537 26.72292,-13.15669 2.82641,-0.99573 6.31396,-0.51998 9.26042,-0.51998 5.73317,0 11.48589,-0.15026 17.19791,0.24091 6.23435,0.42694 12.54134,0.0253 18.78542,0.29867 8.18929,0.35859 16.39994,0.78334 24.60625,0.78334 M 200.01601,181.34107 c 11.06452,-1.52741 13.75655,16.51146 2.64583,17.86323 -12.02598,1.46312 -14.67641,-16.20245 -2.64583,-17.86323"
       id="path1" /></g></svg>
